<?xml version="1.0" encoding="UTF-8" standalone="no"?>
<svg
   xmlns:dc="http://purl.org/dc/elements/1.1/"
   xmlns:cc="http://creativecommons.org/ns#"
   xmlns:rdf="http://www.w3.org/1999/02/22-rdf-syntax-ns#"
   xmlns:svg="http://www.w3.org/2000/svg"
   xmlns="http://www.w3.org/2000/svg"
   height="447.20511"
   width="447.20511"
   id="svg42"
   version="1.1"
   viewBox="0 0 447.20511 447.20511">
  <metadata
     id="metadata48">
    <rdf:RDF>
      <cc:Work
         rdf:about="">
        <dc:format>image/svg+xml</dc:format>
        <dc:type
           rdf:resource="http://purl.org/dc/dcmitype/StillImage" />
        <dc:title></dc:title>
      </cc:Work>
    </rdf:RDF>
  </metadata>
  <defs
     id="defs46" />
  <g
     id="g40"
     transform="matrix(8.131,0,0,8.131,-3669.1107,-3307.9)">
    <path
       style="fill:#aa4400;fill-opacity:1"
       id="path2"
       fill="#a40"
       d="m 332.28,524.51 h 34.204 v 42.635 H 332.28 Z"
       transform="matrix(0.96593,-0.25882,0.25882,0.96593,0,0)" />
    <path
       id="path4"
       fill="#ffffff"
       d="m 334.89,526.52 h 28.995 v 38.202 H 334.89 Z"
       transform="matrix(0.96593,-0.25882,0.25882,0.96593,0,0)" />
    <g
       id="g24"
       stroke-width="1.6324"
       stroke="#000000"
       fill="none"
       transform="matrix(0.96593,-0.25882,0.25882,0.96593,-108.99,100.14)">
      <path
         id="path6"
         d="m 468.18,465.9 h 13.437" />
      <path
         id="path8"
         d="m 468.18,469.16 h 13.437" />
      <path
         id="path10"
         d="m 468.18,472.43 13.437,10e-6" />
      <path
         id="path12"
         d="m 468.18,475.69 h 8.9075" />
      <path
         id="path14"
         d="m 468.18,480.05 h 13.437" />
      <path
         id="path16"
         d="m 468.18,483.31 h 13.437" />
      <path
         id="path18"
         d="m 468.18,486.58 h 13.437" />
      <path
         id="path20"
         d="m 468.18,489.84 h 13.437" />
      <path
         id="path22"
         d="m 468.18,493.11 h 9.466" />
    </g>
    <path
       id="path26"
       fill="#333333"
       d="m 470.77,407.03 c -3.1809,0.85231 -5.07,4.1244 -4.2177,7.3053 0.2091,0.78035 0.56938,1.476 1.0328,2.0795 l -5.7414,1.5384 1.605,5.9901 22.125,-5.9284 -1.605,-5.9901 -5.7414,1.5384 c 0.0995,-0.75423 0.057,-1.5353 -0.15206,-2.3155 -0.85232,-3.1809 -4.1244,-5.07 -7.3053,-4.2177 z" />
    <path
       id="path28"
       stroke-width="1.3634"
       stroke="#000000"
       fill="none"
       d="m 353.38,534.38 h 6.168 v 6.168 h -6.168 z"
       transform="matrix(0.96593,-0.25882,0.25882,0.96593,0,0)" />
    <path
       style="fill:#39ff14;fill-opacity:1"
       id="path30"
       fill="#a00"
       d="m 481.88409,424.7933 c 0.38299,0.38344 0.78652,0.74567 1.17501,1.12333 0.10122,0.0984 0.20927,0.1909 0.29886,0.29997 0.10902,0.13276 0.19549,0.28253 0.2947,0.42277 l 0.39254,0.54871 c 0.0401,0.0534 0.6635,0.89174 0.75294,0.98081 0.41852,0.41674 1.65569,0.13157 -1.02834,0.94598 -0.14774,0.0448 0.10762,-0.29065 0.13891,-0.44183 0.0487,-0.2353 0.0668,-0.4759 0.10024,-0.71385 0.11661,-1.21496 0.15483,-2.44017 0.38384,-3.64188 0.14568,-0.76451 0.24226,-1.03974 0.45543,-1.78728 0.34265,-1.17697 0.80012,-2.31458 1.22189,-3.4641 l 1.35686,-0.82472 c -0.4454,1.14347 -0.90077,2.28396 -1.24509,3.46342 -0.20906,0.71475 -0.3215,1.04134 -0.46777,1.77257 -0.23723,1.18593 -0.28828,2.39862 -0.34134,3.60357 -0.0142,0.23142 -0.0266,0.46296 -0.0426,0.69428 -0.0113,0.16321 0.0767,0.37369 -0.0391,0.48925 -0.46052,0.45948 -1.00567,0.84455 -1.58811,1.13431 -0.097,0.0482 -0.16148,-0.14576 -0.22937,-0.23014 -0.25797,-0.32069 -0.44717,-0.69333 -0.72845,-0.99692 -0.24724,-0.30237 -0.48006,-0.61637 -0.72829,-0.91792 -0.42955,-0.52181 -0.94273,-0.97801 -1.47682,-1.38849 z" />
    <path
       id="path32"
       stroke-width="1.3634"
       stroke="#000000"
       fill="none"
       d="m 353.38,544.38 h 6.168 v 6.168 h -6.168 z"
       transform="matrix(0.96593,-0.25882,0.25882,0.96593,0,0)" />
    <path
       style="fill:#39ff14;fill-opacity:1"
       id="path34"
       fill="#a00"
       d="m 489.69365,432.13981 -1.2232,0.93235 c -0.75012,1.32746 -0.3679,0.63971 -1.14452,2.0875 -0.21972,0.43418 -0.436,0.86968 -0.65027,1.30648 -0.842,-0.43683 -1.7184,-0.8128 -2.63731,-1.06315 l -1.11602,1.33234 c 0.21839,0.0335 0.43839,0.0486 0.65332,0.0998 0.85161,0.20278 1.64716,0.60875 2.41295,1.04633 -0.54759,1.15089 -1.07593,2.31002 -1.59771,3.47308 l 1.4056,-1.11313 c 0.23555,-0.68251 0.50363,-1.36108 0.78756,-2.02483 0.17203,0.1034 0.34305,0.21084 0.51268,0.31333 0.75882,0.48605 1.43396,1.08549 2.16738,1.6068 l 1.15926,-1.21202 c -0.16134,-0.10533 -0.32175,-0.2002 -0.47916,-0.31132 -0.58158,-0.41057 -1.10062,-0.89971 -1.7135,-1.26672 -0.32635,-0.19411 -0.65544,-0.38619 -0.98834,-0.57062 0.40026,-0.84774 0.82102,-1.6895 1.24797,-2.52194 0.80644,-1.46807 0.4072,-0.76215 1.20331,-2.11424 z" />
    <path
       id="path36"
       stroke-width="1.3634"
       stroke="#000000"
       fill="none"
       d="m 353.38,554.37 h 6.168 v 6.168 h -6.168 z"
       transform="matrix(0.96593,-0.25882,0.25882,0.96593,0,0)" />
    <path
       style="fill:#39ff14;fill-opacity:1"
       id="path38"
       fill="#a00"
       d="m 486.98754,443.72382 c 0.32427,0.43423 0.67191,0.85039 1.00246,1.27969 0.0861,0.11184 0.17985,0.21884 0.25293,0.33959 0.0889,0.14697 0.15312,0.30757 0.23128,0.46054 l 0.31011,0.59917 c 0.0321,0.0586 0.52928,0.97738 0.60509,1.07832 0.35468,0.47225 1.6199,0.36678 -1.15296,0.78934 -0.15262,0.0233 0.14804,-0.27228 0.20061,-0.41744 0.0818,-0.22593 0.13413,-0.46147 0.20121,-0.69221 0.289,-1.18584 0.50188,-2.39301 0.90024,-3.54968 0.25342,-0.73585 0.38833,-0.99445 0.70611,-1.70387 0.5073,-1.11594 1.12261,-2.17651 1.70429,-3.25398 l 1.46078,-0.6224 c -0.6042,1.06811 -1.21785,2.13183 -1.72716,3.25 -0.30903,0.67755 -0.46698,0.98472 -0.71623,1.68755 -0.40424,1.13987 -0.62802,2.33283 -0.85269,3.51783 l -0.14132,0.68108 c -0.0345,0.15992 0.0225,0.38081 -0.10863,0.47864 -0.52144,0.38897 -1.11603,0.6922 -1.73389,0.89576 -0.10287,0.0339 -0.139,-0.16732 -0.19414,-0.26054 -0.2095,-0.35426 -0.34352,-0.75011 -0.57853,-1.09077 -0.20151,-0.33459 -0.38707,-0.67864 -0.58968,-1.01256 -0.35058,-0.57782 -0.79332,-1.10267 -1.26328,-1.58525 z" />
  </g>
</svg>
